<svg xmlns='http://www.w3.org/2000/svg' style='font-size:initial;' class="pikchr" id="pikchr-c423e1d823" role="img" viewBox="0 0 344.477 344.477">
<style>
#pikchr-c423e1d823 {
._D {dominant-baseline:central}
._T {fill:transparent}
._tM {text-anchor:middle}
color-scheme:light dark;
._fb {fill:light-dark(rgb(0,0,0),rgb(255,255,255))}
._sa {stroke:light-dark(rgb(0,0,0),rgb(255,255,255))}
}
</style>
<circle class="circle C _T _sa" cx="172.239" cy="172.239" r="36"  stroke-width="2.16" />
<text class="circle C _fb _D _tM" x="172.239" y="172.239">circle</text>
<path class="line _T _sa" d="M172.239,136.239L172.239,2.16"  stroke-width="2.16" />
<path class="line _T _sa" d="M178.49,136.786L201.773,4.74388"  stroke-width="2.16" />
<path class="line _T _sa" d="M184.551,138.41L230.409,12.417"  stroke-width="2.16" />
<path class="line _T _sa" d="M190.239,141.062L257.278,24.9462"  stroke-width="2.16" />
<path class="line _T _sa" d="M195.379,144.661L281.563,41.9509"  stroke-width="2.16" />
<path class="line _T _sa" d="M199.816,149.098L302.527,62.9142"  stroke-width="2.16" />
<path class="line _T _sa" d="M203.416,154.239L319.531,87.1994"  stroke-width="2.16" />
<path class="line _T _sa" d="M206.068,159.926L332.06,114.068"  stroke-width="2.16" />
<path class="line _T _sa" d="M207.692,165.987L339.734,142.705"  stroke-width="2.16" />
<path class="line _T _sa" d="M208.239,172.239L342.317,172.239"  stroke-width="2.16" />
<path class="line _T _sa" d="M207.692,178.49L339.734,201.773"  stroke-width="2.16" />
<path class="line _T _sa" d="M206.068,184.551L332.06,230.409"  stroke-width="2.16" />
<path class="line _T _sa" d="M203.416,190.239L319.531,257.278"  stroke-width="2.16" />
<path class="line _T _sa" d="M199.816,195.379L302.527,281.563"  stroke-width="2.16" />
<path class="line _T _sa" d="M195.379,199.816L281.563,302.527"  stroke-width="2.16" />
<path class="line _T _sa" d="M190.239,203.416L257.278,319.531"  stroke-width="2.16" />
<path class="line _T _sa" d="M184.551,206.068L230.409,332.06"  stroke-width="2.16" />
<path class="line _T _sa" d="M178.49,207.692L201.773,339.734"  stroke-width="2.16" />
<path class="line _T _sa" d="M172.239,208.239L172.239,342.317"  stroke-width="2.16" />
<path class="line _T _sa" d="M165.987,207.692L142.705,339.734"  stroke-width="2.16" />
<path class="line _T _sa" d="M159.926,206.068L114.068,332.06"  stroke-width="2.16" />
<path class="line _T _sa" d="M154.239,203.416L87.1994,319.531"  stroke-width="2.16" />
<path class="line _T _sa" d="M149.098,199.816L62.9142,302.527"  stroke-width="2.16" />
<path class="line _T _sa" d="M144.661,195.379L41.9509,281.563"  stroke-width="2.16" />
<path class="line _T _sa" d="M141.062,190.239L24.9462,257.278"  stroke-width="2.16" />
<path class="line _T _sa" d="M138.41,184.551L12.417,230.409"  stroke-width="2.16" />
<path class="line _T _sa" d="M136.786,178.49L4.74388,201.773"  stroke-width="2.16" />
<path class="line _T _sa" d="M136.239,172.239L2.16,172.239"  stroke-width="2.16" />
<path class="line _T _sa" d="M136.786,165.987L4.74388,142.705"  stroke-width="2.16" />
<path class="line _T _sa" d="M138.41,159.926L12.417,114.068"  stroke-width="2.16" />
<path class="line _T _sa" d="M141.062,154.239L24.9462,87.1994"  stroke-width="2.16" />
<path class="line _T _sa" d="M144.661,149.098L41.9509,62.9142"  stroke-width="2.16" />
<path class="line _T _sa" d="M149.098,144.661L62.9142,41.9509"  stroke-width="2.16" />
<path class="line _T _sa" d="M154.239,141.062L87.1994,24.9462"  stroke-width="2.16" />
<path class="line _T _sa" d="M159.926,138.41L114.068,12.417"  stroke-width="2.16" />
<path class="line _T _sa" d="M165.987,136.786L142.705,4.74388"  stroke-width="2.16" />
</svg>

