<svg xmlns='http://www.w3.org/2000/svg' style='font-size:initial;' class="pikchr" id="pikchr-8353d3cf90" role="img" viewBox="0 0 652.32 178.143">
<style>
#pikchr-8353d3cf90 {
._D {dominant-baseline:central}
._T {fill:transparent}
._tM {text-anchor:middle}
color-scheme:light dark;
._fb {fill:light-dark(rgb(0,0,0),rgb(255,255,255))}
._sa {stroke:light-dark(rgb(0,0,0),rgb(255,255,255))}
}
</style>
<circle class="circle _T _sa" cx="38.16" cy="139.983" r="36"  stroke-width="2.16" />
<text class="circle _fb _D _tM" x="38.16" y="139.983">C0</text>
<polygon class="arrow A0 _fb" points="146.16,139.983 134.64,144.303 134.64,135.663" />
<path class="arrow A0 _T _sa" d="M74.16,139.983L140.4,139.983"  stroke-width="2.16" />
<circle class="circle _T _sa" cx="182.16" cy="139.983" r="36"  stroke-width="2.16" />
<text class="circle _fb _D _tM" x="182.16" y="139.983">C1</text>
<polygon class="arrow A1 _fb" points="290.16,139.983 278.64,144.303 278.64,135.663" />
<path class="arrow A1 _T _sa" d="M218.16,139.983L284.4,139.983"  stroke-width="2.16" />
<circle class="circle _T _sa" cx="326.16" cy="139.983" r="36"  stroke-width="2.16" />
<text class="circle _fb _D _tM" x="326.16" y="139.983">C2</text>
<g class="arrow" >
<polygon class="arrow _fb" points="434.16,139.983 422.64,144.303 422.64,135.663" />
<path class="arrow _T _sa" d="M362.16,139.983L428.4,139.983"  stroke-width="2.16" />
</g>
<circle class="circle _T _sa" cx="470.16" cy="139.983" r="36"  stroke-width="2.16" />
<text class="circle _fb _D _tM" x="470.16" y="139.983">C4</text>
<g class="arrow" >
<polygon class="arrow _fb" points="578.16,139.983 566.64,144.303 566.64,135.663" />
<path class="arrow _T _sa" d="M506.16,139.983L572.4,139.983"  stroke-width="2.16" />
</g>
<circle class="circle _T _sa" cx="614.16" cy="139.983" r="36"  stroke-width="2.16" />
<text class="circle _fb _D _tM" x="614.16" y="139.983">C6</text>
<circle class="circle _T _sa" cx="427.983" cy="38.16" r="36"  stroke-width="2.16" />
<text class="circle _fb _D _tM" x="427.983" y="38.16">C3</text>
<g class="arrow" >
<polygon class="arrow _fb" points="535.983,38.16 524.463,42.48 524.463,33.84" />
<path class="arrow _T _sa" d="M463.983,38.16L530.223,38.16"  stroke-width="2.16" />
</g>
<circle class="circle _T _sa" cx="571.983" cy="38.16" r="36"  stroke-width="2.16" />
<text class="circle _fb _D _tM" x="571.983" y="38.16">C5</text>
<g class="arrow" >
<polygon class="arrow _fb" points="402.528,63.6158 397.436,74.8164 391.327,68.707" />
<path class="arrow _T _sa" d="M351.616,114.528L398.455,67.6888"  stroke-width="2.16" />
</g>
</svg>

