<svg xmlns='http://www.w3.org/2000/svg' style='font-size:initial;' class="pikchr" id="pikchr-0c3a3a4349" role="img" viewBox="0 0 826.589 1175.04">
<style>
#pikchr-0c3a3a4349 {
._D {dominant-baseline:central}
._T {fill:transparent}
._tS {text-anchor:start}
._tM {text-anchor:middle}
color-scheme:light dark;
._fc {fill:light-dark(rgb(255,228,196),rgb(59,32,0))}
._fb {fill:light-dark(rgb(0,0,0),rgb(255,255,255))}
._sa {stroke:light-dark(rgb(0,0,0),rgb(255,255,255))}
}
</style>
<path class="oval _sa _fc" d="M185.415,74.16L329.415,74.16A36 36 0 0 0 365.415 38.16A36 36 0 0 0 329.415 2.16L185.415,2.16A36 36 0 0 0 149.415 38.16A36 36 0 0 0 185.415 74.16Z"  stroke-width="2.16" />
<text class="oval _fb _D _tM" x="257.415" y="38.16">SUBMIT TICKET</text>
<g class="arrow" >
<polygon class="arrow _fb" points="257.415,110.16 253.095,98.64 261.735,98.64" />
<path class="arrow _T _sa" d="M257.415,74.16L257.415,104.4"  stroke-width="2.16" />
</g>
<path class="file NEW _sa _fc" d="M187.546,203.76L327.283,203.76L327.283,131.76L305.683,110.16L187.546,110.16Z"  stroke-width="2.16" />
<path class="file NEW _T _sa" d="M305.683,110.16L305.683,131.76L327.283,131.76"  stroke-width="2.16" />
<text class="file NEW _fb _D _tM" x="257.415" y="146.88">New bug ticket</text>
<text class="file NEW _fb _D _tM" x="257.415" y="167.04">marked "Open"</text>
<g class="arrow" >
<polygon class="arrow _fb" points="257.415,239.76 253.095,228.24 261.735,228.24" />
<path class="arrow _T _sa" d="M257.415,203.76L257.415,234"  stroke-width="2.16" />
</g>
<path class="box _sa _fc" d="M203.559,310.32L311.271,310.32L311.271,239.76L203.559,239.76Z"  stroke-width="2.16" />
<text class="box _fb _D _tM" x="257.415" y="254.88">Triage,</text>
<text class="box _fb _D _tM" x="257.415" y="275.04">augment &amp;</text>
<text class="box _fb _D _tM" x="257.415" y="295.2">correct</text>
<g class="arrow" >
<polygon class="arrow _fb" points="257.415,346.32 253.095,334.8 261.735,334.8" />
<path class="arrow _T _sa" d="M257.415,310.32L257.415,340.56"  stroke-width="2.16" />
</g>
<path class="box DC _sa _fc" d="M163.181,376.56L351.648,376.56L351.648,346.32L163.181,346.32Z"  stroke-width="2.16" />
<text class="box DC _fb _D _tM" x="257.415" y="361.44">Developer comments</text>
<g class="arrow" >
<polygon class="arrow _fb" points="257.415,412.56 253.095,401.04 261.735,401.04" />
<path class="arrow _T _sa" d="M257.415,376.56L257.415,406.8"  stroke-width="2.16" />
</g>
<path class="box FR _sa _fc" d="M190.714,442.8L324.115,442.8L324.115,412.56L190.714,412.56Z"  stroke-width="2.16" />
<text class="box FR _fb _D _tM" x="257.415" y="427.68">Filer responds</text>
<g class="arrow" >
<polygon class="arrow _fb" points="257.415,514.8 253.095,503.28 261.735,503.28" />
<path class="arrow _T _sa" d="M257.415,442.8L257.415,509.04"  stroke-width="2.16" />
</g>
<path class="diamond REJ _sa _fc" d="M185.415,568.8L257.415,622.8L329.415,568.8L257.415,514.8Z"  stroke-width="2.16" />
<text class="diamond REJ _fb _D _tM" x="257.415" y="568.8">Reject?</text>
<g class="arrow" >
<polygon class="arrow _fb" points="401.415,568.8 389.895,573.12 389.895,564.48" />
<path class="arrow _T _sa" d="M329.415,568.8L395.655,568.8"  stroke-width="2.16" />
</g>
<text class="arrow _fb _D _tM" x="365.415" y="557.1">Yes</text>
<path class="box _sa _fc" d="M401.415,604.08L523.296,604.08L523.296,533.52L401.415,533.52Z"  stroke-width="2.16" />
<text class="box _fb _D _tM" x="462.355" y="548.64">Mark ticket</text>
<text class="box _fb _D _tM" x="462.355" y="568.8">"Rejected" &amp;</text>
<text class="box _fb _D _tM" x="462.355" y="588.96">"Resolved"</text>
<g class="arrow" >
<polygon class="arrow _fb" points="559.296,568.8 547.776,573.12 547.776,564.48" />
<path class="arrow _T _sa" d="M523.296,568.8L553.536,568.8"  stroke-width="2.16" />
</g>
<path class="file REJF _sa _fc" d="M559.296,615.6L644.429,615.6L644.429,543.6L622.829,522L559.296,522Z"  stroke-width="2.16" />
<path class="file REJF _T _sa" d="M622.829,522L622.829,543.6L644.429,543.6"  stroke-width="2.16" />
<text class="file REJF _fb _D _tM" x="601.863" y="558.72">Rejected</text>
<text class="file REJF _fb _D _tM" x="601.863" y="578.88">ticket</text>
<g class="arrow" >
<polygon class="arrow _fb" points="680.429,568.8 668.909,573.12 668.909,564.48" />
<path class="arrow _T _sa" d="M644.429,568.8L674.669,568.8"  stroke-width="2.16" />
</g>
<path class="diamond REOP _sa _fc" d="M680.429,568.8L752.429,622.8L824.429,568.8L752.429,514.8Z"  stroke-width="2.16" />
<text class="diamond REOP _fb _D _tM" x="752.429" y="568.8">Reopen?</text>
<polygon class="arrow REJA _fb" points="257.415,676.8 253.095,665.28 261.735,665.28" />
<path class="arrow REJA _T _sa" d="M257.415,622.8L257.415,671.04"  stroke-width="2.16" />
<text class="arrow REJA _fb _D _tS" x="257.415" y="649.8">  No; fix it</text>
<path class="box CHNG _sa _fc" d="M149.127,707.04L365.703,707.04L365.703,676.8L149.127,676.8Z"  stroke-width="2.16" />
<text class="box CHNG _fb _D _tM" x="257.415" y="691.92">Developer changes code</text>
<g class="arrow" >
<polygon class="arrow _fb" points="257.415,743.04 253.095,731.52 261.735,731.52" />
<path class="arrow _T _sa" d="M257.415,707.04L257.415,737.28"  stroke-width="2.16" />
</g>
<path class="diamond FIXD _sa _fc" d="M185.415,797.04L257.415,851.04L329.415,797.04L257.415,743.04Z"  stroke-width="2.16" />
<text class="diamond FIXD _fb _D _tM" x="257.415" y="797.04">Fixed?</text>
<polygon class="arrow FNO _fb" points="401.415,797.04 389.895,801.36 389.895,792.72" />
<path class="arrow FNO _T _sa" d="M329.415,797.04L395.655,797.04"  stroke-width="2.16" />
<text class="arrow FNO _fb _D _tM" x="365.415" y="785.34">No</text>
<path class="box RES _sa _fc" d="M401.415,832.32L623.175,832.32L623.175,761.76L401.415,761.76Z"  stroke-width="2.16" />
<text class="box RES _fb _D _tM" x="512.295" y="776.88">Optional:</text>
<text class="box RES _fb _D _tM" x="512.295" y="797.04">Update ticket resolution:</text>
<text class="box RES _fb _D _tM" x="512.295" y="817.2">"Partial Fix", etc.</text>
<g class="arrow" >
<polygon class="arrow _fb" points="257.415,905.04 253.095,893.52 261.735,893.52" />
<path class="arrow _T _sa" d="M257.415,851.04L257.415,899.28"  stroke-width="2.16" />
</g>
<text class="arrow _fb _D _tS" x="257.415" y="878.04">  Yes</text>
<path class="box _sa _fc" d="M171.763,955.44L343.066,955.44L343.066,905.04L171.763,905.04Z"  stroke-width="2.16" />
<text class="box _fb _D _tM" x="257.415" y="920.16">Mark ticket</text>
<text class="box _fb _D _tM" x="257.415" y="940.32">"Fixed" &amp; "Closed"</text>
<g class="arrow" >
<polygon class="arrow _fb" points="257.415,991.44 253.095,979.92 261.735,979.92" />
<path class="arrow _T _sa" d="M257.415,955.44L257.415,985.68"  stroke-width="2.16" />
</g>
<path class="file RESF _sa _fc" d="M187.2,1064.88L327.629,1064.88L327.629,1013.04L306.029,991.44L187.2,991.44Z"  stroke-width="2.16" />
<path class="file RESF _T _sa" d="M306.029,991.44L306.029,1013.04L327.629,1013.04"  stroke-width="2.16" />
<text class="file RESF _fb _D _tM" x="257.415" y="1028.16">Resolved ticket</text>
<g class="arrow" >
<polygon class="arrow _fb" points="257.415,1100.88 253.095,1089.36 261.735,1089.36" />
<path class="arrow _T _sa" d="M257.415,1064.88L257.415,1095.12"  stroke-width="2.16" />
</g>
<path class="oval _sa _fc" d="M221.415,1172.88L293.415,1172.88A36 36 0 0 0 329.415 1136.88A36 36 0 0 0 293.415 1100.88L221.415,1100.88A36 36 0 0 0 185.415 1136.88A36 36 0 0 0 221.415 1172.88Z"  stroke-width="2.16" />
<text class="oval _fb _D _tM" x="257.415" y="1136.88">END</text>
<g class="line" >
<polygon class="line _fb" points="351.648,361.44 363.168,357.12 363.168,365.76" />
<path class="line _T _sa" d="M324.115,421.632 L 365.148,421.632 Q 387.648,421.632 387.648,399.132 L 387.648,383.94 Q 387.648,361.44 372.528,361.44 L 357.408,361.44"  stroke-width="2.16" />
</g>
<g class="line" >
<polygon class="line _fb" points="185.415,568.8 173.895,573.12 173.895,564.48" />
<path class="line _T _sa" d="M187.546,156.96 L 138.046,156.96 Q 115.546,156.96 115.546,179.46 L 115.546,546.3 Q 115.546,568.8 138.046,568.8 L 157.155,568.8 L 179.655,568.8"  stroke-width="2.16" />
</g>
<text class="line _fb _D _tM" x="115.546" y="352.8" transform="rotate(90 115.546,362.88)">fast reject path</text>
<g class="line" >
<polygon class="line _fb" points="365.703,691.92 377.223,687.6 377.223,696.24" />
<path class="line _T _sa" d="M623.175,797.04 L 644.775,797.04 Q 666.375,797.04 666.375,774.54 L 666.375,714.42 Q 666.375,691.92 643.875,691.92 L 393.963,691.92 L 371.463,691.92"  stroke-width="2.16" />
</g>
<path class="line _T _sa" d="M752.429,622.8L752.429,680.4"  stroke-width="2.16" />
<text class="line _fb _D _tM" x="752.429" y="639.9" transform="rotate(90 752.429,651.6)">No</text>
<g class="line" >
<polygon class="line _fb" points="327.629,1028.16 339.149,1023.84 339.149,1032.48" />
<path class="line _T _sa" d="M752.429,680.4 L 752.429,1005.66 Q 752.429,1028.16 729.929,1028.16 L 355.889,1028.16 L 333.389,1028.16"  stroke-width="2.16" />
</g>
<path class="line _T _sa" d="M752.429,514.8L752.429,471.6"  stroke-width="2.16" />
<text class="line _fb _D _tM" x="752.429" y="504.9" transform="rotate(-90 752.429,493.2)">Yes</text>
<g class="line" >
<polygon class="line _fb" points="324.115,430.704 335.635,426.384 335.635,435.024" />
<path class="line _T _sa" d="M752.429,471.6 L 752.429,451.152 Q 752.429,430.704 729.929,430.704 L 352.375,430.704 L 329.875,430.704"  stroke-width="2.16" />
</g>
</svg>

